<?xml version="1.0" encoding="UTF-8"?>
<svg xmlns="http://www.w3.org/2000/svg" xmlns:xlink="http://www.w3.org/1999/xlink" width="40pt" height="40pt" viewBox="0 0 40 40" version="1.1">
<g id="surface1">
<path style=" stroke:none;fill-rule:nonzero;fill:rgb(0%,0%,0%);fill-opacity:1;" d="M 13.8125 0 L 4.625 0 C 2.074219 0 0 2.074219 0 4.625 L 0 13.8125 C 0 16.363281 2.074219 18.4375 4.625 18.4375 L 13.8125 18.4375 C 16.363281 18.4375 18.4375 16.363281 18.4375 13.8125 L 18.4375 4.625 C 18.4375 2.074219 16.363281 0 13.8125 0 Z M 15.3125 13.8125 C 15.3125 14.640625 14.640625 15.3125 13.8125 15.3125 L 4.625 15.3125 C 3.796875 15.3125 3.125 14.640625 3.125 13.8125 L 3.125 4.625 C 3.125 3.796875 3.796875 3.125 4.625 3.125 L 13.8125 3.125 C 14.640625 3.125 15.3125 3.796875 15.3125 4.625 Z M 15.3125 13.8125 "/>
<path style=" stroke:none;fill-rule:nonzero;fill:rgb(0%,0%,0%);fill-opacity:1;" d="M 35.3125 0 L 26.25 0 C 23.664062 0 21.5625 2.101562 21.5625 4.6875 L 21.5625 13.75 C 21.5625 16.335938 23.664062 18.4375 26.25 18.4375 L 35.3125 18.4375 C 37.898438 18.4375 40 16.335938 40 13.75 L 40 4.6875 C 40 2.101562 37.898438 0 35.3125 0 Z M 36.875 13.75 C 36.875 14.613281 36.175781 15.3125 35.3125 15.3125 L 26.25 15.3125 C 25.386719 15.3125 24.6875 14.613281 24.6875 13.75 L 24.6875 4.6875 C 24.6875 3.824219 25.386719 3.125 26.25 3.125 L 35.3125 3.125 C 36.175781 3.125 36.875 3.824219 36.875 4.6875 Z M 36.875 13.75 "/>
<path style=" stroke:none;fill-rule:nonzero;fill:rgb(0%,0%,0%);fill-opacity:1;" d="M 13.8125 21.5625 L 4.625 21.5625 C 2.074219 21.5625 0 23.636719 0 26.1875 L 0 35.375 C 0 37.925781 2.074219 40 4.625 40 L 13.8125 40 C 16.363281 40 18.4375 37.925781 18.4375 35.375 L 18.4375 26.1875 C 18.4375 23.636719 16.363281 21.5625 13.8125 21.5625 Z M 15.3125 35.375 C 15.3125 36.203125 14.640625 36.875 13.8125 36.875 L 4.625 36.875 C 3.796875 36.875 3.125 36.203125 3.125 35.375 L 3.125 26.1875 C 3.125 25.359375 3.796875 24.6875 4.625 24.6875 L 13.8125 24.6875 C 14.640625 24.6875 15.3125 25.359375 15.3125 26.1875 Z M 15.3125 35.375 "/>
<path style=" stroke:none;fill-rule:nonzero;fill:rgb(0%,0%,0%);fill-opacity:1;" d="M 35.3125 21.5625 L 26.25 21.5625 C 23.664062 21.5625 21.5625 23.664062 21.5625 26.25 L 21.5625 35.3125 C 21.5625 37.898438 23.664062 40 26.25 40 L 35.3125 40 C 37.898438 40 40 37.898438 40 35.3125 L 40 26.25 C 40 23.664062 37.898438 21.5625 35.3125 21.5625 Z M 36.875 35.3125 C 36.875 36.175781 36.175781 36.875 35.3125 36.875 L 26.25 36.875 C 25.386719 36.875 24.6875 36.175781 24.6875 35.3125 L 24.6875 26.25 C 24.6875 25.386719 25.386719 24.6875 26.25 24.6875 L 35.3125 24.6875 C 36.175781 24.6875 36.875 25.386719 36.875 26.25 Z M 36.875 35.3125 "/>
</g>
</svg>
